<?xml version="1.0" encoding="UTF-8" standalone="no"?>
<!-- Created with Inkscape (http://www.inkscape.org/) -->

<svg
   width="208.49223mm"
   height="59.566986mm"
   viewBox="0 0 208.49223 59.566986"
   version="1.1"
   id="svg296"
   inkscape:version="1.2.2 (b0a84865, 2022-12-01)"
   sodipodi:docname="drawing.svg"
   xmlns:inkscape="http://www.inkscape.org/namespaces/inkscape"
   xmlns:sodipodi="http://sodipodi.sourceforge.net/DTD/sodipodi-0.dtd"
   xmlns="http://www.w3.org/2000/svg"
   xmlns:svg="http://www.w3.org/2000/svg">
  <sodipodi:namedview
     id="namedview298"
     pagecolor="#ffffff"
     bordercolor="#000000"
     borderopacity="0.25"
     inkscape:showpageshadow="2"
     inkscape:pageopacity="0.0"
     inkscape:pagecheckerboard="0"
     inkscape:deskcolor="#d1d1d1"
     inkscape:document-units="mm"
     showgrid="false"
     inkscape:zoom="0.54660447"
     inkscape:cx="396.99639"
     inkscape:cy="227.76982"
     inkscape:window-width="1512"
     inkscape:window-height="945"
     inkscape:window-x="0"
     inkscape:window-y="37"
     inkscape:window-maximized="0"
     inkscape:current-layer="layer1" />
  <defs
     id="defs293">
    <clipPath
       clipPathUnits="userSpaceOnUse"
       id="clipPath18">
      <path
         d="M 0,220.144 H 640.048 V 0 H 0 Z"
         id="path16" />
    </clipPath>
  </defs>
  <g
     inkscape:label="Layer 1"
     inkscape:groupmode="layer"
     id="layer1"
     transform="translate(-0.69132241,-100.03412)">
    <g
       id="g12"
       transform="matrix(0.35277777,0,0,-0.35277777,-8.2826385,168.48394)">
      <g
         id="g14"
         clip-path="url(#clipPath18)">
        <g
           id="g20"
           transform="translate(464.3502,128.7657)">
          <path
             d="m 0,0 c -11.538,0 -16.465,-8.881 -16.465,-19.189 0,-9.593 4.732,-19.186 16.529,-19.186 12.315,0 16.399,10.241 16.335,19.641 C 16.334,-7.649 10.566,0 0,0 m -0.195,-43.172 c -13.937,0 -22.883,9.789 -22.883,24.05 0,16.982 11.733,24.047 23.078,24.047 12.834,0 23.011,-8.685 23.011,-23.594 0,-13.742 -8.037,-24.503 -23.206,-24.503"
             style="fill:#231f20;fill-opacity:1;fill-rule:nonzero;stroke:none"
             id="path22" />
        </g>
        <g
           id="g24"
           transform="translate(500.0086,117.2924)">
          <path
             d="m 0,0 v -4.473 c 2.852,4.99 7.715,5.445 9.529,5.445 3.889,0 8.557,-1.944 10.048,-7.001 0.517,-1.815 0.517,-3.695 0.517,-6.288 v -18.214 h -5.12 v 17.371 c 0,3.112 0,4.02 -0.324,5.056 -0.906,2.917 -3.758,4.213 -6.546,4.213 -2.269,0 -4.213,-0.713 -5.833,-2.333 C 0,-8.492 0,-10.825 0,-13.094 V -30.531 H -5.185 V 0 Z"
             style="fill:#231f20;fill-opacity:1;fill-rule:nonzero;stroke:none"
             id="path26" />
        </g>
        <path
           d="m 533.656,86.761 h -4.992 v 45.762 h 4.992 z"
           style="fill:#231f20;fill-opacity:1;fill-rule:nonzero;stroke:none"
           id="path28" />
        <path
           d="m 547.336,86.761 h -4.992 v 30.531 h 4.992 z m 0,39.801 h -4.992 v 5.962 h 4.992 z"
           style="fill:#231f20;fill-opacity:1;fill-rule:nonzero;stroke:none"
           id="path30" />
        <g
           id="g32"
           transform="translate(560.7534,117.2924)">
          <path
             d="m 0,0 v -4.473 c 2.852,4.99 7.715,5.445 9.529,5.445 3.889,0 8.557,-1.944 10.048,-7.001 0.517,-1.815 0.517,-3.695 0.517,-6.288 v -18.214 h -5.12 v 17.371 c 0,3.112 0,4.02 -0.324,5.056 -0.906,2.917 -3.758,4.213 -6.546,4.213 -2.269,0 -4.213,-0.713 -5.833,-2.333 C 0,-8.492 0,-10.825 0,-13.094 V -30.531 H -5.185 V 0 Z"
             style="fill:#231f20;fill-opacity:1;fill-rule:nonzero;stroke:none"
             id="path34" />
        </g>
        <g
           id="g36"
           transform="translate(610.7996,104.9112)">
          <path
             d="m 0,0 c -0.453,8.037 -6.222,9.398 -8.75,9.398 -4.408,0 -8.102,-3.241 -8.685,-9.398 z m 5.64,-8.752 c -0.712,-2.073 -3.436,-10.306 -13.806,-10.306 -9.076,0 -14.974,6.157 -14.974,16.465 0,11.538 8.297,15.946 14.779,15.946 5.64,0 11.604,-3.112 13.417,-10.825 C 5.64,-0.064 5.64,-2.399 5.64,-3.696 h -23.206 c -0.129,-5.12 2.594,-11.473 9.853,-11.473 4.603,0 7.196,3.048 8.104,7.132 z"
             style="fill:#231f20;fill-opacity:1;fill-rule:nonzero;stroke:none"
             id="path38" />
        </g>
        <path
           d="M 59.193,194.031 H 92.948 V 160.276 H 59.193 Z"
           style="fill:#231f20;fill-opacity:1;fill-rule:nonzero;stroke:none"
           id="path40" />
        <path
           d="M 59.193,160.276 H 25.438 v -33.755 h 33.755 z"
           style="fill:#231f20;fill-opacity:1;fill-rule:nonzero;stroke:none"
           id="path42" />
        <path
           d="M 92.948,126.52 H 59.193 V 92.765 h 33.755 z"
           style="fill:#231f20;fill-opacity:1;fill-rule:nonzero;stroke:none"
           id="path44" />
        <path
           d="M 59.193,92.765 H 25.438 V 59.01 h 33.755 z"
           style="fill:#231f20;fill-opacity:1;fill-rule:nonzero;stroke:none"
           id="path46" />
        <path
           d="M 92.948,59.009 H 59.193 V 25.254 h 33.755 z"
           style="fill:#231f20;fill-opacity:1;fill-rule:nonzero;stroke:none"
           id="path48" />
        <g
           id="g50"
           transform="translate(163.4617,90.5645)">
          <path
             d="M 0,0 H -5.642 V -3.889 H 0 v -28 h 4.898 v 28 h 7.416 V 0 H 4.898 c -0.064,4.021 -0.124,7.915 5.28,7.915 1.381,0 2.698,-0.252 4.015,-0.501 l 1.11,3.951 -4.389,0.441 C 3.196,12.557 -0.249,6.717 0,0"
             style="fill:#231f20;fill-opacity:1;fill-rule:nonzero;stroke:none"
             id="path52" />
        </g>
        <g
           id="g54"
           transform="translate(198.5692,79.0808)">
          <path
             d="M 0,0 H 17.126 V 4.332 H 0 v 13.682 h 21.639 v 4.644 H -5.604 v -43.063 h 27.873 v 4.648 H 0 Z"
             style="fill:#231f20;fill-opacity:1;fill-rule:nonzero;stroke:none"
             id="path56" />
        </g>
        <g
           id="g58"
           transform="translate(246.64,75.124)">
          <path
             d="m 0,0 c -1.951,1.317 -4.336,1.759 -6.649,2.2 l -4.65,0.813 c -2.83,0.442 -5.713,1.193 -5.713,4.648 0,3.511 3.887,4.647 6.774,4.647 3.649,0 6.906,-1.509 8.162,-5.026 l 4.525,0.945 c -1.577,5.897 -6.91,8.034 -12.627,8.034 -5.838,0 -11.918,-2.764 -11.918,-9.351 0,-5.649 4.461,-7.916 9.356,-8.855 l 5.208,-0.944 c 2.758,-0.504 6.215,-1.438 6.215,-4.829 0,-4.083 -4.329,-5.275 -7.729,-5.275 -3.819,0 -8.91,1.634 -9.596,5.964 l -4.771,-0.943 c 1.627,-6.531 7.778,-9.103 13.994,-9.103 6.211,0 13.246,2.635 13.246,9.859 C 3.827,-4.327 2.51,-1.691 0,0"
             style="fill:#231f20;fill-opacity:1;fill-rule:nonzero;stroke:none"
             id="path60" />
        </g>
        <g
           id="g62"
           transform="translate(277.2717,75.124)">
          <path
             d="m 0,0 c -1.951,1.317 -4.325,1.759 -6.661,2.2 l -4.634,0.813 c -2.823,0.442 -5.717,1.193 -5.717,4.648 0,3.511 3.891,4.647 6.785,4.647 3.631,0 6.899,-1.509 8.151,-5.026 l 4.514,0.945 c -1.555,5.897 -6.899,8.034 -12.604,8.034 -5.839,0 -11.929,-2.764 -11.929,-9.351 0,-5.649 4.449,-7.916 9.347,-8.855 l 5.208,-0.944 c 2.77,-0.504 6.223,-1.438 6.223,-4.829 0,-4.083 -4.336,-5.275 -7.717,-5.275 -3.838,0 -8.922,1.634 -9.616,5.964 l -4.763,-0.943 c 1.631,-6.531 7.782,-9.103 13.994,-9.103 6.215,0 13.249,2.635 13.249,9.859 C 3.83,-4.327 2.502,-1.691 0,0"
             style="fill:#231f20;fill-opacity:1;fill-rule:nonzero;stroke:none"
             id="path64" />
        </g>
        <g
           id="g66"
           transform="translate(307.3679,77.8372)">
          <path
             d="m 0,0 c 0.06,5.28 -2.894,9.752 -8.559,9.752 -5.351,0 -8.808,-4.721 -8.993,-9.752 z m 4.895,-10.504 c -1.887,-5.846 -7.48,-9.372 -13.579,-9.372 -9.691,0 -14.657,7.675 -14.657,16.608 0,8.806 5.216,16.79 14.782,16.79 9.937,0 14.212,-8.305 13.963,-17.169 h -23.216 c 0,-2.521 0.136,-4.844 1.328,-7.235 1.502,-3.019 4.846,-4.839 8.174,-4.839 4.148,0 7.167,2.385 8.559,6.162 z"
             style="fill:#231f20;fill-opacity:1;fill-rule:nonzero;stroke:none"
             id="path68" />
        </g>
        <g
           id="g70"
           transform="translate(149.6458,66.7101)">
          <path
             d="m 0,0 c 1.317,2.511 1.566,5.4 1.566,8.165 0,3.013 -0.373,6.151 -2.012,8.725 -1.494,2.322 -4.139,3.77 -6.898,3.77 -3.083,0 -5.83,-1.762 -7.223,-4.523 -1.193,-2.323 -1.566,-5.398 -1.566,-7.972 0,-2.889 0.437,-6.219 1.826,-8.729 1.381,-2.449 4.076,-4.015 6.963,-4.015 3.268,0 5.838,1.696 7.344,4.579 m -21.598,8.165 c 0,8.849 5.019,16.51 14.635,16.51 9.348,0 13.997,-8.164 13.997,-16.573 0,-8.915 -5.147,-16.763 -14.816,-16.763 -9.544,0 -13.816,8.412 -13.816,16.826"
             style="fill:#231f20;fill-opacity:1;fill-rule:nonzero;stroke:none"
             id="path72" />
        </g>
        <g
           id="g74"
           transform="translate(330.4184,76.1261)">
          <path
             d="m 0,0 9.378,14.319 0.143,0.214 H 9.261 4.472 4.397 L 4.355,14.465 -2.593,3.574 -9.306,14.393 h -5.725 l 9.574,-15.348 -10.767,-16.558 -0.135,-0.211 h 0.26 4.83 0.083 l 0.042,0.063 8.344,12.91 7.974,-12.833 h 5.789 z"
             style="fill:#231f20;fill-opacity:1;fill-rule:nonzero;stroke:none"
             id="path76" />
        </g>
        <g
           id="g78"
           transform="translate(179.5599,150.0811)">
          <path
             d="m 0,0 c -4.527,0 -8.116,-2.77 -9.934,-6.737 h -0.125 v 5.914 h -4.659 v -31.955 h 4.912 v 16.738 c 0,3.207 0.435,6.102 2.511,8.616 1.698,2.012 4.028,3.207 6.607,3.207 2.076,0 4.402,-1.07 5.472,-2.894 0.941,-1.638 0.877,-4.028 0.877,-5.909 v -19.758 h 4.909 v 17.683 c 0,3.139 0.125,7.418 -1.513,10.126 C 7.046,-1.638 3.838,0 0,0"
             style="fill:#231f20;fill-opacity:1;fill-rule:nonzero;stroke:none"
             id="path80" />
        </g>
        <path
           d="m 196.196,117.303 h 4.905 v 31.956 h -4.905 z"
           style="fill:#231f20;fill-opacity:1;fill-rule:nonzero;stroke:none"
           id="path82" />
        <path
           d="m 195.946,154.92 h 5.408 v 5.536 h -5.408 z"
           style="fill:#231f20;fill-opacity:1;fill-rule:nonzero;stroke:none"
           id="path84" />
        <g
           id="g86"
           transform="translate(272.3974,141.7747)">
          <path
             d="m 0,0 h -0.125 v 7.484 h -4.402 v -31.956 h 4.909 v 16.103 c 0,2.517 0.249,4.533 1.573,6.862 1.826,3.207 4.466,5.031 8.244,5.031 h 0.999 v 4.72 L 9.382,8.369 C 4.22,8.369 1.513,4.345 0,0"
             style="fill:#231f20;fill-opacity:1;fill-rule:nonzero;stroke:none"
             id="path88" />
        </g>
        <g
           id="g90"
           transform="translate(308.3235,133.7858)">
          <path
             d="m 0,0 c -1.951,1.32 -4.345,1.762 -6.671,2.205 l -4.651,0.815 c -2.84,0.442 -5.726,1.195 -5.726,4.657 0,3.519 3.895,4.657 6.796,4.657 3.642,0 6.905,-1.513 8.176,-5.037 l 4.519,0.947 c -1.558,5.909 -6.905,8.051 -12.635,8.051 -5.846,0 -11.954,-2.77 -11.954,-9.371 0,-5.661 4.467,-7.932 9.371,-8.873 l 5.223,-0.946 c 2.772,-0.505 6.225,-1.441 6.225,-4.839 0,-4.091 -4.338,-5.286 -7.738,-5.286 -3.835,0 -8.928,1.637 -9.624,5.976 l -4.777,-0.945 c 1.638,-6.544 7.802,-9.122 14.035,-9.122 6.22,0 13.269,2.64 13.269,9.88 C 3.838,-4.336 2.507,-1.694 0,0"
             style="fill:#231f20;fill-opacity:1;fill-rule:nonzero;stroke:none"
             id="path92" />
        </g>
        <path
           d="m 317.608,117.303 h 4.908 v 31.956 h -4.908 z"
           style="fill:#231f20;fill-opacity:1;fill-rule:nonzero;stroke:none"
           id="path94" />
        <path
           d="m 317.358,154.92 h 5.408 v 5.536 h -5.408 z"
           style="fill:#231f20;fill-opacity:1;fill-rule:nonzero;stroke:none"
           id="path96" />
        <g
           id="g98"
           transform="translate(257.2402,136.5047)">
          <path
             d="m 0,0 c 0.064,5.291 -2.897,9.772 -8.569,9.772 -5.363,0 -8.831,-4.731 -9.02,-9.772 z m 4.912,-10.526 c -1.887,-5.858 -7.495,-9.392 -13.606,-9.392 -9.708,0 -14.688,7.692 -14.688,16.643 0,8.825 5.23,16.825 14.813,16.825 9.957,0 14.241,-8.322 13.988,-17.205 h -23.258 c 0,-2.526 0.126,-4.854 1.321,-7.249 1.512,-3.026 4.855,-4.85 8.202,-4.85 4.16,0 7.185,2.39 8.565,6.175 z"
             style="fill:#231f20;fill-opacity:1;fill-rule:nonzero;stroke:none"
             id="path100" />
        </g>
        <g
           id="g102"
           transform="translate(153.8595,160.5546)">
          <path
             d="m 0,0 v -27.315 c 0,-2.583 -0.068,-6.108 -1.827,-8.373 -1.875,-2.464 -6.334,-3.254 -9.545,-3.322 -3.203,0.068 -6.992,0.858 -8.868,3.322 -1.751,2.265 -1.826,5.79 -1.826,8.373 V 0 h -6.04 v -27.315 c 0,-4.47 0.284,-8.816 3.79,-12.338 3.233,-3.269 8.217,-4.154 12.926,-4.154 h 0.041 c 4.705,0 9.696,0.885 12.919,4.154 3.513,3.522 3.793,7.868 3.793,12.338 L 5.363,0 Z"
             style="fill:#231f20;fill-opacity:1;fill-rule:nonzero;stroke:none"
             id="path104" />
        </g>
        <g
           id="g106"
           transform="translate(232.3983,149.3531)">
          <path
             d="m 0,0 h -4.421 -0.098 l -0.034,-0.098 -8.702,-25.88 -8.887,25.838 h -5.491 l 11.413,-32.044 5.31,-0.047 L 0.129,-0.182 0.189,0 Z"
             style="fill:#231f20;fill-opacity:1;fill-rule:nonzero;stroke:none"
             id="path108" />
        </g>
        <g
           id="g110"
           transform="translate(374.8553,149.3531)">
          <path
             d="m 0,0 h -4.156 -0.095 l -0.041,-0.094 -8.702,-23.935 -8.566,23.935 -15.176,0.005 v 11.498 l -4.908,-0.505 V -0.089 h -5.665 v -3.903 h 5.665 v -17.656 c 0,-6.352 2.08,-10.438 9.065,-10.438 l 4.712,0.374 v 3.9 l -3.775,-0.313 c -4.023,0 -5.094,1.95 -5.094,5.66 v 18.473 h 11.455 l 0.019,0.021 9.617,-27.606 -0.352,-1.035 c -1.176,-3.471 -2.276,-6.75 -6.705,-6.75 -0.937,0 -1.997,0.14 -3.256,0.437 l -0.166,0.036 v -0.172 -3.977 -0.109 l 0.106,-0.025 c 1.07,-0.286 2.36,-0.573 3.691,-0.573 2.878,0 4.595,0.374 6.61,2.502 1.759,1.902 2.473,3.793 3.294,5.977 0,0.005 12.559,35.079 12.559,35.079 L 0.196,0 Z"
             style="fill:#231f20;fill-opacity:1;fill-rule:nonzero;stroke:none"
             id="path112" />
        </g>
        <g
           id="g114"
           transform="translate(408.2239,194.0307)">
          <path
             d="M 0,0 V -168.851"
             style="fill:#231f20;fill-opacity:1;fill-rule:nonzero;stroke:none"
             id="path116" />
        </g>
        <path
           d="m 409.713,25.18 h -2.981 v 168.85 h 2.981 z"
           style="fill:#231f20;fill-opacity:1;fill-rule:nonzero;stroke:none"
           id="path118" />
      </g>
    </g>
  </g>
</svg>
